<?xml version="1.0" encoding="UTF-8"?>
<svg xmlns="http://www.w3.org/2000/svg" xmlns:xlink="http://www.w3.org/1999/xlink" width="2384" height="1684" viewBox="0 0 2384 1684">
<defs>
<clipPath id="clip-0">

</clipPath>
</defs>
<path fill-rule="nonzero" fill="rgb(96.484375%, 91.796875%, 83.59375%)" fill-opacity="1" d="M 1481.128906 371.449219 C 1429.570312 333.25 1442.460938 304.949219 1391.558594 250.578125 C 1341.441406 197.039062 1253.179688 192.328125 1175.328125 191.78125 C 1076.691406 191.089844 991.597656 181.761719 928.109375 228.5 C 827.726562 302.398438 879.484375 432.859375 799.496094 464.589844 C 763.28125 478.960938 730.355469 461.070312 693.023438 443.171875 C 658.421875 426.589844 620.035156 410 571.730469 419.109375 C 476.09375 437.128906 388.226562 547.070312 404.289062 633.160156 C 422.71875 731.917969 566.964844 740.691406 576.792969 837.589844 C 583.84375 907.09375 511.523438 921.296875 502.328125 1016.808594 C 494.746094 1095.609375 528.820312 1180.550781 589.570312 1220.410156 C 659.6875 1266.421875 748.070312 1282.539062 833.71875 1295.28125 C 1389.128906 1377.929688 1436.808594 1398.519531 1767.191406 1347.03125 C 2020.140625 1307.609375 2092.46875 1248.960938 2127.371094 1213.039062 C 2148.429688 1191.359375 2275.351562 1054.96875 2207.988281 915.640625 C 2148.910156 793.453125 1988.359375 768.132812 1974.300781 766.117188 C 1984.800781 754.585938 2128.679688 593.171875 2066.761719 492.871094 C 2018.96875 415.460938 1867.429688 404.988281 1764.441406 397.871094 C 1712.570312 394.289062 1670.539062 395.839844 1635.03125 397.378906 C 1567.859375 400.308594 1524.03125 403.230469 1481.128906 371.449219 "/>
<path fill-rule="nonzero" fill="rgb(80.076599%, 80.076599%, 80.076599%)" fill-opacity="1" d="M 1238.960938 1514.121094 C 936.792969 1514.121094 691.839844 1490.390625 691.839844 1461.109375 C 691.839844 1435.378906 881.046875 1413.929688 1132 1409.109375 L 1132 1426.890625 L 1314.941406 1426.890625 L 1314.941406 1408.609375 C 1581.148438 1412.191406 1786.078125 1434.328125 1786.078125 1461.109375 C 1786.078125 1490.390625 1541.128906 1514.121094 1238.960938 1514.121094 "/>
<path fill-rule="nonzero" fill="rgb(39.988708%, 17.651367%, 56.834412%)" fill-opacity="1" d="M 1728.21875 1234.550781 L 720.054688 1234.550781 L 720.054688 668.089844 C 720.054688 651.96875 733.246094 638.78125 749.371094 638.78125 L 1700.839844 638.78125 C 1715.898438 638.78125 1728.21875 651.089844 1728.21875 666.148438 L 1728.21875 1234.550781 "/>
<path fill-rule="nonzero" fill="rgb(39.988708%, 17.651367%, 56.834412%)" fill-opacity="1" d="M 1637.839844 1324.921875 L 810.429688 1324.921875 C 760.511719 1324.921875 720.054688 1284.460938 720.054688 1234.550781 L 1728.21875 1234.550781 C 1728.21875 1284.460938 1687.75 1324.921875 1637.839844 1324.921875 "/>
<path fill-rule="nonzero" fill="rgb(19.993591%, 19.993591%, 19.993591%)" fill-opacity="1" d="M 1132 1426.890625 L 1314.941406 1426.890625 L 1314.941406 1324.921875 L 1132 1324.921875 Z M 1132 1426.890625 "/>
<path fill-rule="nonzero" fill="rgb(19.604492%, 19.604492%, 19.604492%)" fill-opacity="1" d="M 1132 1357.238281 L 1314.941406 1357.238281 L 1314.941406 1324.921875 L 1132 1324.921875 Z M 1132 1357.238281 "/>
<path fill-rule="nonzero" fill="rgb(19.993591%, 19.993591%, 19.993591%)" fill-opacity="1" d="M 1434.941406 1454.320312 L 1012 1454.320312 L 1012 1444.480469 C 1012 1418.378906 1033.589844 1397.019531 1059.960938 1397.019531 L 1386.980469 1397.019531 C 1413.351562 1397.019531 1434.941406 1418.378906 1434.941406 1444.480469 L 1434.941406 1454.320312 "/>
<path fill-rule="nonzero" fill="rgb(42.747498%, 22.75238%, 60.742188%)" fill-opacity="1" d="M 1247.179688 1279.730469 C 1247.179688 1293.820312 1235.75 1305.25 1221.660156 1305.25 C 1207.570312 1305.25 1196.140625 1293.820312 1196.140625 1279.730469 C 1196.140625 1265.640625 1207.570312 1254.210938 1221.660156 1254.210938 C 1235.75 1254.210938 1247.179688 1265.640625 1247.179688 1279.730469 "/>
<g clip-path="url(#clip-0)">
<path fill-rule="nonzero" fill="rgb(100%, 100%, 100%)" fill-opacity="1" d="M 1705.878906 654.871094 L 737.4375 654.871094 L 737.4375 1227.699219 L 1705.878906 1227.699219 Z M 1705.878906 654.871094 "/>
</g>
<path fill-rule="nonzero" fill="rgb(100%, 17.651367%, 34.104919%)" fill-opacity="1" d="M 1022.988281 557.371094 L 1025.410156 558.011719 C 1029.710938 541.789062 1038.460938 529.238281 1049.558594 520.699219 C 1060.671875 512.160156 1074.140625 507.648438 1087.898438 507.648438 C 1105.621094 507.660156 1123.820312 515.109375 1138.148438 531.28125 L 1342.410156 762.046875 L 1545.398438 991.375 C 1558.851562 1006.570312 1565.058594 1025.179688 1565.058594 1043.300781 C 1565.070312 1059.03125 1560.371094 1074.359375 1551.699219 1086.660156 C 1543.019531 1098.960938 1530.429688 1108.238281 1514.460938 1112.03125 L 1232.140625 1178.949219 L 949.808594 1245.871094 C 944.871094 1247.039062 939.992188 1247.601562 935.210938 1247.601562 C 916.304688 1247.601562 898.871094 1238.921875 886.113281 1225.089844 C 873.363281 1211.261719 865.367188 1192.328125 865.371094 1172.03125 C 865.371094 1165.441406 866.210938 1158.710938 868.003906 1151.941406 L 946.460938 855.902344 L 1025.410156 558.011719 L 1022.988281 557.371094 L 1020.578125 556.730469 L 941.628906 854.621094 L 863.171875 1150.660156 C 861.265625 1157.851562 860.371094 1165.011719 860.371094 1172.03125 C 860.375 1193.648438 868.863281 1213.75 882.4375 1228.480469 C 896.007812 1243.199219 914.742188 1252.589844 935.210938 1252.601562 C 940.378906 1252.601562 945.648438 1252 950.960938 1250.738281 L 1233.289062 1183.808594 L 1515.621094 1116.890625 C 1532.820312 1112.820312 1546.488281 1102.738281 1555.789062 1089.539062 C 1565.089844 1076.339844 1570.058594 1060.019531 1570.058594 1043.300781 C 1570.070312 1024.050781 1563.449219 1004.21875 1549.148438 988.058594 L 1346.160156 758.734375 L 1141.898438 527.96875 C 1126.679688 510.769531 1107.03125 502.640625 1087.898438 502.648438 C 1073.039062 502.648438 1058.488281 507.519531 1046.519531 516.730469 C 1034.53125 525.941406 1025.140625 539.5 1020.578125 556.730469 L 1022.988281 557.371094 "/>
<path fill-rule="nonzero" fill="rgb(100%, 17.651367%, 34.104919%)" fill-opacity="1" d="M 1660.921875 505.488281 L 1662.210938 507.628906 C 1665.550781 505.621094 1668.96875 504.730469 1672.21875 504.730469 C 1676.890625 504.730469 1681.25 506.578125 1684.449219 509.769531 C 1687.640625 512.96875 1689.691406 517.46875 1689.699219 522.96875 C 1689.699219 523.289062 1689.691406 523.621094 1689.679688 523.941406 L 1685.578125 617 L 1681.511719 709.476562 C 1681.238281 715.46875 1678.628906 720.636719 1674.78125 724.335938 C 1670.929688 728.035156 1665.871094 730.199219 1660.859375 730.195312 C 1657.871094 730.191406 1654.890625 729.441406 1652.070312 727.769531 L 1576.660156 683 L 1501.25 638.21875 C 1498.351562 636.5 1496.21875 634.148438 1494.789062 631.421875 C 1493.351562 628.691406 1492.628906 625.570312 1492.628906 622.371094 C 1492.628906 618.820312 1493.53125 615.171875 1495.300781 611.910156 C 1497.078125 608.628906 1499.710938 605.738281 1503.21875 603.621094 L 1582.46875 555.78125 L 1662.210938 507.628906 L 1660.921875 505.488281 L 1659.621094 503.351562 L 1579.878906 551.5 L 1500.640625 599.339844 C 1496.339844 601.929688 1493.078125 605.511719 1490.898438 609.519531 C 1488.730469 613.53125 1487.628906 617.980469 1487.628906 622.371094 C 1487.628906 626.320312 1488.519531 630.238281 1490.359375 633.738281 C 1492.191406 637.25 1494.988281 640.320312 1498.699219 642.519531 L 1574.109375 687.296875 L 1649.519531 732.070312 C 1653.109375 734.207031 1657.019531 735.195312 1660.859375 735.195312 C 1667.308594 735.1875 1673.53125 732.464844 1678.238281 727.941406 C 1682.949219 723.421875 1686.179688 717.035156 1686.5 709.695312 L 1690.570312 617.21875 L 1694.671875 524.160156 C 1694.691406 523.761719 1694.699219 523.359375 1694.699219 522.96875 C 1694.699219 516.199219 1692.109375 510.339844 1687.980469 506.230469 C 1683.859375 502.121094 1678.21875 499.730469 1672.21875 499.730469 C 1668.050781 499.730469 1663.710938 500.878906 1659.621094 503.351562 L 1660.921875 505.488281 "/>
<path fill-rule="nonzero" fill="rgb(100%, 100%, 100%)" fill-opacity="1" d="M 1113.570312 649.199219 C 1124.578125 611.101562 1172.710938 599.210938 1200.199219 627.789062 L 1392.429688 827.691406 L 1584.660156 1027.589844 C 1612.140625 1056.179688 1598.378906 1103.800781 1559.878906 1113.308594 L 1290.648438 1179.839844 L 1021.421875 1246.371094 C 982.917969 1255.878906 948.558594 1220.148438 959.570312 1182.050781 L 1113.570312 649.199219 "/>
<path fill-rule="nonzero" fill="rgb(100%, 17.651367%, 34.104919%)" fill-opacity="1" d="M 1498.378906 1052.53125 L 1272.960938 1108.238281 L 1047.53125 1163.941406 C 1015.699219 1171.800781 987.285156 1142.261719 996.390625 1110.761719 L 1060.859375 887.683594 L 1125.339844 664.609375 C 1134.441406 633.109375 1174.230469 623.269531 1196.960938 646.910156 L 1357.921875 814.28125 L 1518.871094 981.652344 C 1541.601562 1005.289062 1530.21875 1044.671875 1498.378906 1052.53125 Z M 1624.058594 1019.671875 L 1407.480469 794.453125 L 1190.898438 569.238281 C 1160.320312 537.429688 1106.769531 550.660156 1094.519531 593.050781 L 1007.769531 893.222656 L 921.015625 1193.390625 C 908.761719 1235.78125 946.992188 1275.539062 989.828125 1264.949219 L 1293.160156 1190 L 1596.488281 1115.039062 C 1639.328125 1104.460938 1654.640625 1051.46875 1624.058594 1019.671875 "/>
<path fill-rule="nonzero" fill="rgb(100%, 17.651367%, 34.104919%)" fill-opacity="1" d="M 1252.320312 984.640625 L 1215.75 993.675781 L 1142.398438 767.148438 L 1211.710938 750.023438 L 1252.320312 984.640625 "/>
<path fill-rule="nonzero" fill="rgb(100%, 17.651367%, 34.104919%)" fill-opacity="1" d="M 1265.761719 1065.089844 L 1246.199219 1069.921875 C 1236.5 1072.320312 1226.691406 1066.390625 1224.289062 1056.691406 L 1219.460938 1037.140625 C 1217.058594 1027.429688 1222.988281 1017.621094 1232.691406 1015.21875 L 1252.238281 1010.390625 C 1261.949219 1007.988281 1271.761719 1013.921875 1274.160156 1023.621094 L 1278.988281 1043.179688 C 1281.390625 1052.878906 1275.460938 1062.691406 1265.761719 1065.089844 "/>
<path fill-rule="nonzero" fill="rgb(100%, 100%, 100%)" fill-opacity="1" d="M 1695.328125 562.710938 C 1705.929688 558.25 1717.390625 566.941406 1715.949219 578.359375 L 1705.910156 658.191406 L 1695.859375 738.023438 C 1694.421875 749.4375 1681.171875 755.015625 1672 748.066406 L 1607.890625 699.449219 L 1543.769531 650.828125 C 1534.601562 643.878906 1536.398438 629.609375 1547 625.148438 L 1621.171875 593.929688 L 1695.328125 562.710938 "/>
<path fill-rule="nonzero" fill="rgb(100%, 17.651367%, 34.104919%)" fill-opacity="1" d="M 1674.5 723.105469 L 1620.820312 682.398438 L 1567.128906 641.691406 C 1559.550781 635.941406 1561.039062 624.140625 1569.808594 620.449219 L 1631.898438 594.308594 L 1693.988281 568.179688 C 1702.761719 564.488281 1712.238281 571.671875 1711.050781 581.109375 L 1702.640625 647.960938 L 1694.230469 714.800781 C 1693.039062 724.238281 1682.078125 728.851562 1674.5 723.105469 Z M 1704.828125 745.46875 L 1716.148438 655.519531 L 1727.46875 565.578125 C 1729.070312 552.878906 1716.320312 543.210938 1704.519531 548.171875 L 1620.96875 583.339844 L 1537.410156 618.511719 C 1525.609375 623.480469 1523.621094 639.359375 1533.820312 647.089844 L 1606.050781 701.867188 L 1678.289062 756.640625 C 1688.488281 764.378906 1703.238281 758.167969 1704.828125 745.46875 "/>
<path fill-rule="nonzero" fill="rgb(100%, 17.651367%, 34.104919%)" fill-opacity="1" d="M 1644.941406 655.199219 L 1636.230469 648.589844 L 1673.96875 590.730469 L 1690.46875 603.25 L 1644.941406 655.199219 "/>
<path fill-rule="nonzero" fill="rgb(100%, 17.651367%, 34.104919%)" fill-opacity="1" d="M 1626.910156 671.140625 C 1623.308594 668.410156 1622.609375 663.28125 1625.339844 659.691406 C 1628.058594 656.089844 1633.191406 655.378906 1636.789062 658.109375 C 1640.378906 660.839844 1641.089844 665.96875 1638.359375 669.558594 C 1635.628906 673.160156 1630.511719 673.859375 1626.910156 671.140625 "/>
<path fill-rule="nonzero" fill="rgb(32.93457%, 17.651367%, 9.423828%)" fill-opacity="1" d="M 1781.851562 943.011719 C 1765.371094 946.679688 1737.730469 954.980469 1730.53125 972.8125 C 1727.011719 981.503906 1728.78125 986.59375 1722.089844 993.878906 C 1706.269531 1011.121094 1700.980469 1026.519531 1713.988281 1048.25 C 1718.871094 1056.390625 1724.648438 1058.921875 1721.5 1067.789062 C 1718.261719 1076.890625 1709.078125 1082.859375 1702.929688 1089.699219 C 1690.050781 1104.011719 1687.761719 1129.449219 1694.300781 1147.351562 C 1699.480469 1161.511719 1710.171875 1173.519531 1724.820312 1178.359375 C 1751.828125 1187.28125 1781.328125 1190.609375 1809.699219 1195.210938 C 1828.941406 1198.328125 1861.921875 1206.261719 1877.710938 1191.691406 C 1888.679688 1181.558594 1898.121094 1166.410156 1899.261719 1151.398438 C 1900.269531 1138.121094 1897.308594 1129.53125 1889.390625 1119.03125 C 1884.210938 1112.160156 1876.390625 1106.03125 1878.5 1096.550781 C 1880.609375 1087.019531 1891.378906 1082.78125 1894.558594 1074 C 1898.691406 1062.550781 1891.789062 1056.929688 1887.210938 1047.339844 C 1877.398438 1026.78125 1893.578125 1003.398438 1879.828125 982.921875 C 1868.171875 965.5625 1856.140625 962.972656 1837.179688 968.488281 C 1832.101562 944.878906 1793.789062 925.96875 1781.851562 943.011719 "/>
<path fill-rule="nonzero" fill="rgb(94.921875%, 94.921875%, 94.921875%)" fill-opacity="1" d="M 1874.289062 1259.328125 C 1874.289062 1259.328125 1862.988281 1292.800781 1868.371094 1304.949219 C 1869.589844 1307.699219 1870.699219 1310.761719 1871.691406 1314.03125 C 1873.570312 1320.140625 1875.050781 1326.949219 1876.238281 1333.679688 C 1877.128906 1338.769531 1877.851562 1343.820312 1878.421875 1348.5 C 1880.039062 1361.679688 1880.488281 1371.929688 1880.488281 1371.929688 C 1880.488281 1371.929688 1808.839844 1412.03125 1784.460938 1412.03125 C 1760.078125 1412.03125 1719.308594 1376.851562 1718.449219 1371.289062 C 1718.101562 1369.039062 1718.460938 1361.761719 1719.800781 1352.519531 C 1720.308594 1349.03125 1720.960938 1345.269531 1721.761719 1341.378906 C 1724.101562 1330.121094 1727.761719 1317.898438 1733.128906 1308.769531 C 1733.871094 1307.519531 1734.398438 1305.878906 1734.75 1303.96875 C 1737.488281 1289.050781 1729.710938 1257.191406 1729.710938 1257.191406 L 1715.171875 1273.019531 L 1665.980469 1240.511719 C 1665.980469 1240.511719 1701.910156 1167.359375 1708.328125 1161.800781 C 1714.738281 1156.238281 1751.53125 1149.828125 1751.53125 1149.828125 L 1839.640625 1149.828125 C 1839.640625 1149.828125 1869.578125 1148.109375 1883.269531 1153.25 C 1896.960938 1158.378906 1937.589844 1241.789062 1937.589844 1241.789062 L 1881.128906 1274.300781 L 1874.289062 1259.328125 "/>
<path fill-rule="nonzero" fill="rgb(96.875%, 82.03125%, 69.726562%)" fill-opacity="1" d="M 1778.46875 1113.46875 L 1772.910156 1149.398438 L 1755.800781 1149.398438 C 1755.800781 1149.398438 1777.378906 1173.351562 1798.878906 1170.359375 C 1820.390625 1167.359375 1829.378906 1162.230469 1839.640625 1149.828125 L 1822.53125 1148.96875 L 1812.691406 1113.46875 L 1778.46875 1113.46875 "/>
<path fill-rule="nonzero" fill="rgb(29.80957%, 16.088867%, 8.616638%)" fill-opacity="1" d="M 1814.820312 1121.140625 L 1813.449219 1116.191406 C 1813.640625 1116.191406 1813.820312 1116.191406 1814 1116.191406 C 1816.160156 1116.191406 1817.480469 1116.25 1817.480469 1116.398438 C 1817.480469 1116.679688 1816.5 1118.628906 1814.820312 1121.140625 M 1777.429688 1120.210938 C 1776.050781 1118.609375 1775.230469 1117.539062 1775.230469 1117.539062 C 1775.230469 1117.539062 1776.210938 1117.488281 1777.859375 1117.421875 L 1777.429688 1120.210938 "/>
<path fill-rule="nonzero" fill="rgb(87.5%, 74.021912%, 63.084412%)" fill-opacity="1" d="M 1797.988281 1133.699219 C 1797.898438 1133.699219 1797.808594 1133.699219 1797.71875 1133.699219 C 1789.960938 1133.488281 1781.371094 1124.738281 1777.429688 1120.210938 L 1777.859375 1117.421875 C 1785.019531 1117.089844 1804.871094 1116.230469 1813.449219 1116.191406 L 1814.820312 1121.140625 C 1811.371094 1126.269531 1804.960938 1133.710938 1797.988281 1133.699219 "/>
<path fill-rule="nonzero" fill="rgb(96.875%, 82.03125%, 69.726562%)" fill-opacity="1" d="M 1740.941406 1021.71875 C 1740.75 1028.800781 1740.589844 1039.488281 1740.941406 1052.519531 C 1741.570312 1076.410156 1741.960938 1088.5 1745.429688 1095.5 C 1754.390625 1113.589844 1778.21875 1124.421875 1799.96875 1123.410156 C 1824.941406 1122.25 1847.539062 1105.460938 1853.859375 1086.199219 C 1855.398438 1081.539062 1855.738281 1076.460938 1856.429688 1066.308594 C 1857 1057.898438 1857.980469 1043.539062 1854.828125 1028.128906 C 1851.699219 1012.859375 1848.308594 996.296875 1834.460938 985.746094 C 1815.25 971.125 1789.609375 978.476562 1782 980.65625 C 1778.140625 981.761719 1745.421875 991.582031 1741.261719 1014.339844 C 1740.71875 1017.300781 1740.769531 1019.871094 1740.941406 1021.71875 "/>
<path fill-rule="nonzero" fill="rgb(85.546875%, 85.546875%, 85.546875%)" fill-opacity="1" d="M 1721.761719 1341.378906 C 1724.101562 1330.121094 1727.761719 1317.898438 1733.128906 1308.769531 C 1733.871094 1307.519531 1734.398438 1305.878906 1734.75 1303.96875 C 1742.738281 1300.480469 1751.488281 1297.929688 1758.5 1293.949219 C 1771.101562 1286.800781 1787.628906 1280.359375 1797.328125 1269.339844 C 1801.070312 1270.941406 1804.109375 1274.320312 1807.410156 1276.648438 C 1817.269531 1283.609375 1827.78125 1288.929688 1838.191406 1294.960938 C 1849.308594 1301.390625 1860.148438 1308.308594 1871.691406 1314.03125 L 1876.238281 1333.679688 C 1872.960938 1333.269531 1869.03125 1330.320312 1865.988281 1328.878906 C 1858.769531 1325.46875 1851.648438 1321.839844 1844.769531 1317.621094 C 1828.261719 1307.5 1810.140625 1297.230469 1797.730469 1281.960938 C 1790.769531 1291.660156 1784.480469 1299.191406 1774.5 1306.160156 C 1766.070312 1312.050781 1757.371094 1318.078125 1749.308594 1324.5 C 1745.089844 1327.871094 1741.269531 1331.609375 1736.449219 1334.210938 C 1732.390625 1336.410156 1726.550781 1340.46875 1721.761719 1341.378906 "/>
<path fill-rule="nonzero" fill="rgb(85.546875%, 85.546875%, 85.546875%)" fill-opacity="1" d="M 1764.460938 1260.429688 C 1763.078125 1257.789062 1755.929688 1255.71875 1753.238281 1254.46875 C 1748.859375 1252.429688 1744.621094 1250.308594 1740.800781 1247.410156 C 1736.578125 1244.210938 1730.621094 1240.488281 1731.328125 1234.390625 C 1731.691406 1234.359375 1732.050781 1234.339844 1732.390625 1234.339844 C 1735.820312 1234.339844 1738.039062 1235.988281 1740.910156 1238.019531 C 1745.140625 1241.019531 1749.691406 1243.5 1753.960938 1246.410156 C 1757.539062 1248.851562 1761.351562 1251.039062 1764.980469 1253.371094 C 1766.890625 1254.601562 1770.71875 1256.261719 1770.648438 1258.96875 C 1770.371094 1258.949219 1770.058594 1258.941406 1769.738281 1258.941406 C 1767.53125 1258.941406 1764.71875 1259.449219 1764.460938 1260.429688 "/>
<path fill-rule="nonzero" fill="rgb(85.546875%, 85.546875%, 85.546875%)" fill-opacity="1" d="M 1831.71875 1261.800781 C 1829.078125 1261.800781 1826.230469 1261.25 1823.328125 1261.078125 C 1822.761719 1254.289062 1837.820312 1248.601562 1842.269531 1246.21875 C 1848.089844 1243.101562 1854.011719 1238.699219 1860.089844 1236.210938 C 1862.230469 1235.328125 1864.558594 1235.089844 1866.96875 1235.089844 C 1868.410156 1235.089844 1869.890625 1235.171875 1871.371094 1235.261719 C 1869.050781 1242 1865.378906 1245.628906 1859.328125 1249.648438 C 1853.03125 1253.828125 1843.210938 1261.601562 1835.269531 1261.601562 C 1834.960938 1261.601562 1834.648438 1261.589844 1834.351562 1261.570312 C 1833.5 1261.738281 1832.628906 1261.800781 1831.71875 1261.800781 "/>
<path fill-rule="nonzero" fill="rgb(90.234375%, 90.234375%, 90.234375%)" fill-opacity="1" d="M 1784.460938 1412.03125 C 1760.078125 1412.03125 1719.308594 1376.851562 1718.449219 1371.289062 C 1718.371094 1370.75 1718.328125 1369.929688 1718.328125 1368.871094 C 1718.328125 1365.460938 1718.78125 1359.558594 1719.800781 1352.519531 C 1720.921875 1352.390625 1722.089844 1352.351562 1723.25 1352.351562 C 1724.578125 1352.351562 1725.921875 1352.410156 1727.171875 1352.46875 C 1728.429688 1352.519531 1729.609375 1352.578125 1730.640625 1352.578125 C 1730.671875 1352.578125 1730.699219 1352.578125 1730.71875 1352.578125 C 1730.851562 1352.578125 1730.96875 1352.578125 1731.089844 1352.578125 C 1753.628906 1352.578125 1774.589844 1362.890625 1796.890625 1363.640625 C 1798.179688 1363.679688 1799.480469 1363.699219 1800.78125 1363.699219 C 1826.480469 1363.699219 1854.199219 1355.550781 1878.421875 1348.5 C 1880.039062 1361.679688 1880.488281 1371.929688 1880.488281 1371.929688 C 1880.488281 1371.929688 1808.839844 1412.03125 1784.460938 1412.03125 "/>
<path fill-rule="nonzero" fill="rgb(91.014099%, 72.851562%, 63.867188%)" fill-opacity="1" d="M 1671.910156 1244.429688 C 1671.910156 1244.429688 1629.191406 1316.648438 1643.308594 1334.179688 C 1657.421875 1351.71875 1676.238281 1347.019531 1705.328125 1334.179688 C 1734.421875 1321.351562 1801.789062 1271.308594 1801.789062 1271.308594 C 1801.789062 1271.308594 1821.679688 1264.460938 1839.640625 1254.621094 C 1857.609375 1244.789062 1871.289062 1236.230469 1868.730469 1232.378906 C 1866.160156 1228.53125 1846.058594 1241.789062 1846.058594 1241.789062 C 1846.058594 1241.789062 1845.519531 1240.351562 1846.320312 1239.871094 C 1847.128906 1239.390625 1871.828125 1224.148438 1871.828125 1221.738281 C 1871.828125 1219.328125 1870.058594 1216.609375 1865.25 1219.171875 C 1860.441406 1221.738281 1841.988281 1233.289062 1841.191406 1232.808594 C 1840.390625 1232.328125 1839.910156 1231.691406 1842.148438 1229.921875 C 1844.398438 1228.160156 1872.46875 1211.640625 1871.828125 1208.75 C 1871.191406 1205.859375 1867.660156 1205.21875 1861.398438 1208.75 C 1855.148438 1212.28125 1836.699219 1223.988281 1836.058594 1223.339844 C 1835.421875 1222.699219 1834.289062 1222.699219 1838.140625 1219.980469 C 1841.988281 1217.25 1863.808594 1203.621094 1863.96875 1200.890625 C 1864.128906 1198.160156 1860.28125 1197.679688 1850.820312 1202.328125 C 1841.351562 1206.980469 1831.25 1215 1830.441406 1214.839844 C 1829.640625 1214.679688 1823.230469 1219.328125 1823.230469 1218.851562 C 1823.230469 1218.371094 1830.929688 1212.28125 1833.011719 1206.980469 C 1835.101562 1201.691406 1837.5 1197.199219 1835.101562 1196.878906 C 1832.691406 1196.558594 1824.671875 1202.648438 1820.5 1209.070312 C 1816.328125 1215.488281 1804.890625 1221.738281 1801.789062 1229.761719 C 1798.679688 1237.78125 1797.078125 1240.988281 1794.511719 1244.839844 C 1791.949219 1248.691406 1702.441406 1289.589844 1702.441406 1289.589844 L 1714.300781 1272.441406 L 1671.910156 1244.429688 "/>
<path fill-rule="nonzero" fill="rgb(96.875%, 82.03125%, 69.726562%)" fill-opacity="1" d="M 1966.769531 1317.320312 C 1964.261719 1333.230469 1887.191406 1357.921875 1887.191406 1357.921875 L 1887.191406 1317.320312 L 1907.289062 1305.359375 L 1889.75 1269.339844 L 1937.589844 1241.789062 C 1937.589844 1241.789062 1969.289062 1301.398438 1966.769531 1317.320312 "/>
<path fill-rule="nonzero" fill="rgb(19.993591%, 19.993591%, 19.993591%)" fill-opacity="1" d="M 1890.539062 1382.378906 L 1701.210938 1382.378906 L 1701.210938 1273.761719 L 1890.539062 1273.761719 L 1890.539062 1382.378906 "/>
<path fill-rule="nonzero" fill="rgb(92.576599%, 47.851562%, 26.268005%)" fill-opacity="1" d="M 1676.460938 1353.429688 C 1676.460938 1353.429688 1623.199219 1350.21875 1609.089844 1375.25 C 1594.96875 1400.269531 1591.121094 1418.230469 1616.789062 1438.128906 C 1642.449219 1458.011719 1906.160156 1504.210938 1906.160156 1504.210938 L 1918.988281 1466.359375 C 1918.988281 1466.359375 1798.171875 1416.308594 1758.488281 1390 C 1718.800781 1363.699219 1676.460938 1353.429688 1676.460938 1353.429688 "/>
<path fill-rule="nonzero" fill="rgb(96.484375%, 52.929688%, 30.200195%)" fill-opacity="1" d="M 1937.589844 1357.921875 C 1933.058594 1357.789062 1865.730469 1363.058594 1822.75 1391.929688 C 1779.761719 1420.800781 1745.851562 1440.050781 1730.078125 1447.75 C 1714.308594 1455.449219 1675.171875 1472.769531 1675.171875 1472.769531 C 1675.171875 1472.769531 1672.609375 1501 1686.71875 1504.210938 C 1700.839844 1507.421875 1908.71875 1488.808594 1947.21875 1461.859375 C 1985.710938 1434.921875 2004.320312 1414.378906 1999.828125 1395.140625 C 1995.339844 1375.890625 1979.941406 1359.210938 1937.589844 1357.921875 "/>
<path fill-rule="nonzero" fill="rgb(94.921875%, 76.951599%, 66.209412%)" fill-opacity="1" d="M 1580.859375 1495.871094 C 1595.621094 1513.191406 1627.050781 1529.230469 1686.71875 1504.210938 L 1675.171875 1472.769531 C 1675.171875 1472.769531 1566.101562 1478.550781 1580.859375 1495.871094 "/>
<path fill-rule="nonzero" fill="rgb(94.921875%, 76.951599%, 66.209412%)" fill-opacity="1" d="M 1908.71875 1472.769531 C 1908.71875 1472.769531 1971.601562 1472.128906 1986.359375 1483.039062 C 2001.109375 1493.941406 2015.871094 1492.660156 2004.320312 1504.210938 C 1992.769531 1515.761719 1922.199219 1523.460938 1906.160156 1504.210938 L 1908.71875 1472.769531 "/>
<path fill-rule="nonzero" fill="rgb(32.93457%, 17.651367%, 9.423828%)" fill-opacity="1" d="M 1740.738281 1035.511719 C 1740.738281 1035.511719 1739.660156 1005.679688 1757.300781 1007.601562 C 1774.949219 1009.53125 1779.761719 1025.890625 1796.121094 1016.261719 C 1812.480469 1006.640625 1818.898438 996.375 1824.988281 999.582031 C 1831.089844 1002.789062 1819.859375 1003.660156 1831.730469 1021.511719 C 1843.601562 1039.359375 1851.621094 1039.679688 1853.539062 1047.378906 C 1855.46875 1055.078125 1853.539062 1083.960938 1853.539062 1083.960938 C 1853.539062 1083.960938 1888.511719 1032.300781 1862.851562 993.808594 C 1837.179688 955.3125 1771.628906 951.78125 1755.800781 971.351562 C 1739.980469 990.921875 1720.539062 995.101562 1730.671875 1020.761719 C 1740.808594 1046.410156 1739.339844 1036.160156 1739.339844 1036.160156 L 1740.738281 1035.511719 "/>
<path fill-rule="nonzero" fill="rgb(0%, 0%, 0%)" fill-opacity="1" d="M 1824.671875 1049.949219 C 1824.671875 1054.378906 1822.300781 1057.96875 1819.378906 1057.96875 C 1816.449219 1057.96875 1814.078125 1054.378906 1814.078125 1049.949219 C 1814.078125 1045.519531 1816.449219 1041.929688 1819.378906 1041.929688 C 1822.300781 1041.929688 1824.671875 1045.519531 1824.671875 1049.949219 "/>
<path fill-rule="nonzero" fill="rgb(0%, 0%, 0%)" fill-opacity="1" d="M 1776.230469 1050.179688 C 1776.230469 1054.609375 1773.859375 1058.199219 1770.941406 1058.199219 C 1768.011719 1058.199219 1765.640625 1054.609375 1765.640625 1050.179688 C 1765.640625 1045.75 1768.011719 1042.160156 1770.941406 1042.160156 C 1773.859375 1042.160156 1776.230469 1045.75 1776.230469 1050.179688 "/>
<path fill-rule="nonzero" fill="rgb(88.671875%, 61.131287%, 47.459412%)" fill-opacity="1" d="M 1800.058594 1050.179688 C 1800.058594 1050.179688 1811.011719 1069.519531 1806.769531 1074.011719 C 1802.539062 1078.5 1796.121094 1077.539062 1796.121094 1077.539062 C 1796.121094 1077.539062 1803.820312 1076.261719 1803.820312 1071.441406 C 1803.820312 1066.628906 1800.058594 1050.179688 1800.058594 1050.179688 "/>
<path fill-rule="nonzero" fill="rgb(37.646484%, 21.972656%, 7.446289%)" fill-opacity="1" d="M 1782.359375 1037.621094 C 1780.160156 1037.800781 1777.941406 1037.871094 1775.730469 1037.820312 C 1773.511719 1037.769531 1771.238281 1037.601562 1769.101562 1038.21875 C 1765.101562 1039.378906 1762.378906 1042.988281 1760 1046.410156 C 1760.460938 1043.011719 1759.011719 1039.109375 1761.078125 1036.371094 C 1762.171875 1034.929688 1763.988281 1034.25 1765.75 1033.78125 C 1768.988281 1032.921875 1772.359375 1032.53125 1775.710938 1032.628906 C 1776.570312 1032.660156 1777.46875 1032.710938 1778.269531 1032.390625 C 1780.339844 1031.570312 1780.769531 1029.070312 1782.078125 1027.519531 C 1783.78125 1025.511719 1786.53125 1025.859375 1788.03125 1028.03125 C 1789.070312 1029.53125 1788.671875 1032.328125 1788.28125 1034.011719 C 1787.640625 1036.730469 1784.808594 1037.410156 1782.359375 1037.621094 "/>
<path fill-rule="nonzero" fill="rgb(37.646484%, 21.972656%, 7.446289%)" fill-opacity="1" d="M 1803.21875 1036.441406 C 1805.019531 1037.648438 1807.339844 1037.660156 1809.5 1037.640625 C 1812.5 1037.601562 1815.5 1037.570312 1818.5 1037.53125 C 1820.910156 1037.5 1823.351562 1037.480469 1825.679688 1038.101562 C 1828.011719 1038.71875 1830.238281 1040.078125 1831.378906 1042.199219 C 1832 1040.988281 1831.109375 1039.558594 1830.148438 1038.589844 C 1827.550781 1035.96875 1824.148438 1034.148438 1820.53125 1033.441406 C 1817.761719 1032.910156 1814.910156 1033.011719 1812.140625 1032.511719 C 1810.261719 1032.179688 1808.261719 1031.511719 1806.78125 1030.25 C 1805.558594 1029.210938 1804.578125 1026.160156 1802.75 1026.269531 C 1797.949219 1026.558594 1800.929688 1034.898438 1803.21875 1036.441406 "/>
<path fill-rule="nonzero" fill="rgb(75.78125%, 15.281677%, 17.651367%)" fill-opacity="1" d="M 1794.511719 1092.28125 C 1797.839844 1091.039062 1801.328125 1089.980469 1804.871094 1090.171875 C 1811.191406 1090.511719 1817.039062 1095.21875 1818.71875 1101.320312 C 1814.25 1098.179688 1809.519531 1094.929688 1804.089844 1094.371094 C 1797.140625 1093.671875 1791.449219 1097.828125 1784.859375 1098.609375 C 1786.339844 1095.300781 1791.320312 1093.46875 1794.511719 1092.28125 "/>
<path fill-rule="nonzero" fill="rgb(10.594177%, 7.835388%, 39.208984%)" fill-opacity="1" d="M 1831.550781 912.449219 C 1829.640625 908.011719 1831.25 902.371094 1835.210938 899.609375 C 1836.328125 898.828125 1837.511719 898.324219 1838.648438 897.835938 L 1839.070312 897.65625 C 1841.121094 896.769531 1843.140625 895.757812 1845.070312 894.644531 C 1846.28125 893.949219 1847.640625 893.109375 1848.371094 891.996094 C 1848.839844 891.28125 1849.140625 890.328125 1849.269531 889.160156 C 1849.71875 884.8125 1847.300781 879.972656 1843.238281 877.117188 C 1839.539062 874.515625 1834.480469 873.3125 1829 873.730469 C 1826.238281 873.9375 1824.410156 874.605469 1823.410156 875.769531 C 1822.578125 876.738281 1822.148438 878.300781 1822.210938 880.167969 C 1822.351562 884.507812 1825.738281 889.300781 1830.058594 889.21875 L 1830.140625 893.5625 C 1823.160156 893.691406 1818.078125 886.683594 1817.871094 880.308594 C 1817.769531 877.304688 1818.550781 874.757812 1820.121094 872.9375 C 1821.910156 870.855469 1824.710938 869.699219 1828.671875 869.398438 C 1835.148438 868.902344 1841.210938 870.382812 1845.738281 873.5625 C 1851.128906 877.355469 1854.210938 883.65625 1853.589844 889.617188 C 1853.390625 891.480469 1852.859375 893.085938 1852 894.382812 C 1850.800781 896.207031 1849 897.394531 1847.238281 898.410156 C 1845.160156 899.605469 1842.988281 900.691406 1840.789062 901.644531 L 1840.359375 901.828125 C 1839.378906 902.246094 1838.449219 902.644531 1837.699219 903.171875 C 1835.398438 904.773438 1834.429688 908.164062 1835.539062 910.734375 L 1831.550781 912.449219 "/>
<path fill-rule="nonzero" fill="rgb(10.594177%, 7.835388%, 39.208984%)" fill-opacity="1" d="M 1838.269531 917.363281 C 1838.269531 919.335938 1836.671875 920.929688 1834.710938 920.929688 C 1832.738281 920.929688 1831.140625 919.335938 1831.140625 917.363281 C 1831.140625 915.394531 1832.738281 913.800781 1834.710938 913.800781 C 1836.671875 913.800781 1838.269531 915.394531 1838.269531 917.363281 "/>
<path fill-rule="nonzero" fill="rgb(10.594177%, 7.835388%, 39.208984%)" fill-opacity="1" d="M 1862.441406 916.554688 C 1862.691406 911.730469 1866.628906 907.378906 1871.398438 906.652344 C 1872.75 906.445312 1874.03125 906.515625 1875.269531 906.578125 L 1875.730469 906.601562 C 1877.949219 906.714844 1880.210938 906.695312 1882.441406 906.554688 C 1883.839844 906.464844 1885.421875 906.3125 1886.570312 905.636719 C 1887.308594 905.203125 1888 904.480469 1888.628906 903.488281 C 1890.960938 899.785156 1890.929688 894.375 1888.539062 890.019531 C 1886.371094 886.050781 1882.371094 882.734375 1877.261719 880.6875 C 1874.699219 879.65625 1872.761719 879.449219 1871.351562 880.050781 C 1870.171875 880.550781 1869.101562 881.761719 1868.328125 883.464844 C 1866.539062 887.421875 1867.460938 893.21875 1871.371094 895.050781 L 1869.519531 898.984375 C 1863.199219 896.019531 1861.738281 887.484375 1864.371094 881.671875 C 1865.609375 878.9375 1867.441406 876.992188 1869.648438 876.054688 C 1872.171875 874.980469 1875.191406 875.179688 1878.878906 876.65625 C 1884.910156 879.078125 1889.699219 883.082031 1892.351562 887.9375 C 1895.519531 893.71875 1895.5 900.730469 1892.300781 905.804688 C 1891.300781 907.390625 1890.109375 908.59375 1888.769531 909.382812 C 1886.890625 910.484375 1884.75 910.757812 1882.71875 910.886719 C 1880.328125 911.039062 1877.898438 911.058594 1875.511719 910.941406 L 1875.039062 910.917969 C 1873.980469 910.859375 1872.96875 910.808594 1872.058594 910.945312 C 1869.289062 911.367188 1866.929688 913.980469 1866.78125 916.777344 L 1862.441406 916.554688 "/>
<path fill-rule="nonzero" fill="rgb(10.594177%, 7.835388%, 39.208984%)" fill-opacity="1" d="M 1866.300781 923.933594 C 1865.429688 925.699219 1863.289062 926.425781 1861.53125 925.554688 C 1859.761719 924.683594 1859.039062 922.546875 1859.910156 920.78125 C 1860.769531 919.015625 1862.910156 918.285156 1864.679688 919.15625 C 1866.449219 920.027344 1867.171875 922.164062 1866.300781 923.933594 "/>
<path fill-rule="nonzero" fill="rgb(80.076599%, 80.076599%, 80.076599%)" fill-opacity="1" d="M 1807.75 1330.28125 C 1807.75 1336.238281 1800.691406 1341.078125 1791.988281 1341.078125 C 1783.289062 1341.078125 1776.230469 1336.238281 1776.230469 1330.28125 C 1776.230469 1324.320312 1783.289062 1319.480469 1791.988281 1319.480469 C 1800.691406 1319.480469 1807.75 1324.320312 1807.75 1330.28125 "/>
<path fill-rule="nonzero" fill="rgb(75.78125%, 15.281677%, 17.651367%)" fill-opacity="1" d="M 806.5 1067.699219 L 783.234375 1091.910156 L 759.972656 1116.128906 L 750.632812 1083.878906 L 741.292969 1051.621094 L 773.894531 1059.660156 L 806.5 1067.699219 "/>
<path fill-rule="nonzero" fill="rgb(75.78125%, 15.281677%, 17.651367%)" fill-opacity="1" d="M 1753.628906 617.460938 L 1748.738281 601.398438 L 1743.859375 585.328125 L 1760.210938 589.140625 L 1776.570312 592.941406 L 1765.089844 605.199219 L 1753.628906 617.460938 "/>
<path fill-rule="evenodd" fill="rgb(0%, 0%, 0%)" fill-opacity="1" d="M 497.058594 1556.21875 C 497.058594 1556.21875 465.804688 1545.210938 454.488281 1547.769531 C 443.171875 1550.320312 437.003906 1564.480469 436.621094 1570.378906 C 436.226562 1576.28125 436 1581.980469 440.199219 1584.148438 C 444.40625 1586.308594 498.902344 1586.898438 503.089844 1582.769531 C 507.269531 1578.640625 497.058594 1556.21875 497.058594 1556.21875 "/>
<path fill-rule="evenodd" fill="rgb(0%, 0%, 0%)" fill-opacity="1" d="M 488.429688 1553.429688 C 480.546875 1551.039062 468.882812 1547.898438 460.566406 1547.441406 C 456.457031 1548.179688 453.113281 1549.101562 452.289062 1549.890625 C 450.089844 1552.03125 445.835938 1565.480469 446.78125 1565.238281 C 471.761719 1558.648438 486.167969 1561.738281 492.484375 1564.101562 C 493.175781 1563.800781 491.429688 1561.289062 488.429688 1553.429688 "/>
<path fill-rule="evenodd" fill="rgb(0%, 0%, 0%)" fill-opacity="1" d="M 436.527344 1577.480469 C 436.820312 1580.460938 437.769531 1582.898438 440.199219 1584.148438 C 444.40625 1586.308594 498.902344 1586.898438 503.089844 1582.769531 C 504.199219 1581.671875 504.296875 1579.289062 503.832031 1576.371094 C 499.191406 1577.078125 492.957031 1577.828125 485.632812 1577.828125 C 473.171875 1577.828125 447.234375 1577.578125 436.527344 1577.480469 "/>
<path fill-rule="evenodd" fill="rgb(0%, 0%, 0%)" fill-opacity="1" d="M 550.1875 1545.601562 C 549.964844 1550.71875 546.683594 1569.589844 550.644531 1570.378906 C 554.601562 1571.171875 651.914062 1575.890625 667.582031 1573.921875 C 683.246094 1571.960938 689.796875 1568.019531 682.429688 1559.761719 C 675.066406 1551.5 645.078125 1548.761719 621.511719 1538.128906 C 597.941406 1527.511719 593.015625 1521.609375 593.015625 1521.609375 L 550.1875 1545.601562 "/>
<path fill-rule="evenodd" fill="rgb(0%, 0%, 0%)" fill-opacity="1" d="M 652.820312 1548.449219 C 642.710938 1545.738281 631.527344 1542.648438 621.511719 1538.128906 C 619.890625 1537.410156 618.367188 1536.699219 616.921875 1536.019531 C 611.15625 1534.679688 607.230469 1533.601562 607.453125 1533.179688 C 608.25 1531.679688 592.902344 1541.839844 592.902344 1541.839844 C 598.210938 1542.621094 626.136719 1556.390625 635.96875 1555.210938 C 641.554688 1554.539062 648.160156 1551.199219 652.820312 1548.449219 "/>
<path fill-rule="evenodd" fill="rgb(45.872498%, 29.80957%, 14.109802%)" fill-opacity="1" d="M 486.445312 1016.75 C 486.445312 1016.75 472.089844 1265.171875 467.507812 1291.921875 C 462.921875 1318.660156 443.816406 1494.871094 442.699219 1508.238281 C 441.585938 1521.609375 436.566406 1564.679688 439.769531 1560.160156 C 442.386719 1556.460938 456.929688 1550.46875 469.074219 1550.710938 C 485.574219 1551.039062 502.734375 1561.46875 502.027344 1558.980469 C 502.027344 1558.980469 516.6875 1326.53125 521.164062 1296.640625 C 525.640625 1266.75 538.339844 1224.269531 540.722656 1202.238281 C 543.113281 1180.21875 564.328125 1110.988281 564.328125 1110.988281 C 564.328125 1110.988281 560.710938 1302.929688 561.683594 1308.441406 C 562.660156 1313.949219 538.320312 1475.199219 535.527344 1508.238281 C 532.730469 1541.28125 523.097656 1558.578125 534.058594 1557.011719 C 538.269531 1556.410156 543.804688 1556.960938 549.992188 1557.519531 C 559.894531 1558.421875 571.46875 1559.308594 581.984375 1555.441406 C 599.078125 1549.148438 621.511719 1538.128906 621.511719 1538.128906 C 621.511719 1538.128906 601.089844 1493.300781 601.359375 1478.351562 C 601.628906 1463.410156 606.175781 1321.019531 610.429688 1307.648438 C 614.691406 1294.28125 639.300781 1083.859375 639.300781 1083.859375 L 617.296875 1038.621094 L 486.445312 1016.75 "/>
<path fill-rule="nonzero" fill="rgb(41.575623%, 27.050781%, 12.547302%)" fill-opacity="1" d="M 439.355469 1560.488281 C 438.964844 1560.488281 438.773438 1559.351562 438.730469 1557.410156 C 443.800781 1553.53125 450.476562 1548.96875 455.480469 1547.578125 C 457.285156 1547.078125 459.863281 1546.890625 462.851562 1546.890625 C 467.921875 1546.890625 474.160156 1547.449219 479.765625 1548 C 485.371094 1548.558594 490.339844 1549.109375 492.863281 1549.109375 C 493.953125 1549.109375 494.585938 1549.011719 494.613281 1548.761719 C 494.8125 1546.988281 515.066406 1298.410156 515.066406 1298.410156 L 555.183594 1115.910156 C 563.398438 1104.539062 570.832031 1098.339844 580.753906 1088.769531 L 579.582031 1092.121094 C 579.582031 1092.121094 571.324219 1111.789062 571.324219 1113.75 C 571.324219 1115.71875 570.144531 1277.371094 569.75 1295.46875 C 569.355469 1313.550781 567.785156 1333.21875 567.785156 1333.21875 L 568.964844 1354.460938 C 568.964844 1354.460938 562.277344 1354.851562 562.277344 1358 C 562.277344 1361.148438 552.832031 1470.488281 548.503906 1487.800781 C 544.179688 1505.101562 537.386719 1533.039062 543.785156 1539.320312 C 549.648438 1545.070312 559.285156 1552.488281 565.402344 1552.488281 C 565.964844 1552.488281 566.496094 1552.429688 566.992188 1552.300781 C 572.890625 1550.730469 621.511719 1538.128906 621.511719 1538.128906 C 621.511719 1538.128906 614.113281 1541.761719 604.578125 1546.050781 C 597.507812 1549.230469 589.261719 1552.761719 581.984375 1555.441406 C 576.023438 1557.628906 569.722656 1558.300781 563.578125 1558.300781 C 558.882812 1558.300781 554.28125 1557.910156 549.992188 1557.519531 C 545.703125 1557.140625 541.730469 1556.75 538.289062 1556.75 C 536.769531 1556.75 535.351562 1556.820312 534.058594 1557.011719 C 533.597656 1557.078125 533.175781 1557.109375 532.789062 1557.109375 C 529.972656 1557.109375 528.945312 1555.390625 528.941406 1552.03125 C 528.929688 1544.769531 533.695312 1529.878906 535.527344 1508.238281 C 538.265625 1475.851562 561.71875 1320.199219 561.714844 1308.941406 C 561.714844 1308.710938 561.703125 1308.550781 561.683594 1308.441406 C 561.570312 1307.789062 561.519531 1304.511719 561.519531 1299.238281 C 561.515625 1260.078125 564.328125 1110.988281 564.328125 1110.988281 C 564.328125 1110.988281 552.574219 1149.351562 545.578125 1178.039062 C 543.175781 1187.898438 541.335938 1196.609375 540.722656 1202.238281 C 538.339844 1224.269531 525.640625 1266.75 521.164062 1296.640625 C 516.6875 1326.53125 502.027344 1558.980469 502.027344 1558.980469 C 502.039062 1559.03125 502.046875 1559.070312 502.046875 1559.109375 C 502.046875 1559.28125 501.917969 1559.359375 501.667969 1559.359375 C 500.3125 1559.359375 495.433594 1557.039062 488.964844 1554.800781 C 483.152344 1552.789062 476.054688 1550.851562 469.074219 1550.710938 C 468.835938 1550.699219 468.597656 1550.699219 468.359375 1550.699219 C 462.128906 1550.699219 455.34375 1552.28125 449.90625 1554.300781 C 445.664062 1555.878906 442.242188 1557.71875 440.535156 1559.308594 C 440.21875 1559.601562 439.960938 1559.890625 439.769531 1560.160156 C 439.609375 1560.378906 439.472656 1560.488281 439.355469 1560.488281 "/>
<path fill-rule="evenodd" fill="rgb(25.87738%, 12.939453%, 4.315186%)" fill-opacity="1" d="M 638.574219 1090.039062 L 639.300781 1083.859375 L 636.117188 1077.308594 L 617.796875 1056.300781 L 613.660156 1060.429688 C 614.15625 1060.71875 622.3125 1071.640625 628.21875 1077.640625 C 632.808594 1082.300781 637.144531 1087.839844 638.574219 1090.039062 "/>
<path fill-rule="evenodd" fill="rgb(25.87738%, 12.939453%, 4.315186%)" fill-opacity="1" d="M 497.054688 1097.089844 C 488.402344 1103.578125 483.484375 1105.941406 483.484375 1105.941406 L 482.304688 1099.839844 L 527.671875 1066.261719 L 531.765625 1070.039062 C 520.238281 1079.089844 508.769531 1088.300781 497.054688 1097.089844 "/>
<path fill-rule="evenodd" fill="rgb(91.796875%, 67.381287%, 49.021912%)" fill-opacity="1" d="M 646.769531 846.261719 L 636.347656 926.609375 L 720.824219 987.175781 L 714.496094 1006.960938 C 714.496094 1006.960938 594.285156 963.625 594.230469 961.066406 C 594.175781 958.507812 621.511719 846.261719 621.511719 846.261719 L 646.769531 846.261719 "/>
<path fill-rule="evenodd" fill="rgb(16.088867%, 66.992188%, 88.671875%)" fill-opacity="1" d="M 531.933594 724.65625 C 575.585938 733.328125 587.960938 753.027344 625.636719 767.328125 C 635.992188 771.261719 651.152344 845.992188 651.152344 845.992188 L 625.25 847.566406 C 622.976562 864.738281 619.167969 875.753906 616.539062 891.617188 C 613.285156 911.28125 626.039062 1036.519531 625.957031 1036.820312 C 624.234375 1042.570312 621.277344 1052.539062 621.089844 1053.011719 C 621.046875 1053.121094 596.085938 1066.921875 586.867188 1069.398438 C 574.097656 1072.820312 555.15625 1069.890625 537.125 1066.960938 C 523.148438 1064.691406 509.71875 1062.421875 500.125 1063.109375 C 478.148438 1064.679688 463.898438 1061.921875 463.898438 1061.921875 C 463.929688 1005.191406 471.589844 986.90625 465.457031 923.085938 C 462.789062 895.363281 455.488281 856.898438 455.488281 856.898438 C 455.488281 856.898438 451.675781 855.433594 440.691406 856.21875 C 429.703125 857.007812 403.488281 849.53125 403.488281 849.53125 L 437.007812 743.53125 C 441.03125 730.804688 471.125 730.070312 493.015625 728.585938 C 497.242188 728.296875 497.070312 728.011719 500.816406 727.570312 C 513.277344 726.113281 523.78125 724.382812 531.933594 724.65625 "/>
<path fill-rule="nonzero" fill="rgb(80.076599%, 80.076599%, 80.076599%)" fill-opacity="1" d="M 467.707031 958.589844 C 467.449219 948.285156 466.765625 936.726562 465.457031 923.085938 C 462.789062 895.363281 455.488281 856.898438 455.488281 856.898438 C 455.488281 856.898438 453.371094 856.542969 448.328125 856.007812 C 453.515625 856.140625 455.488281 856.898438 455.488281 856.898438 C 455.488281 856.898438 462.789062 895.363281 465.457031 923.085938 C 466.765625 936.726562 467.449219 948.285156 467.707031 958.589844 M 415.273438 852.554688 L 415.265625 852.554688 C 407.382812 851.699219 403.488281 849.53125 403.488281 849.53125 C 403.488281 849.53125 408.609375 850.992188 415.273438 852.554688 "/>
<path fill-rule="nonzero" fill="rgb(12.939453%, 53.709412%, 70.896912%)" fill-opacity="1" d="M 537.25 1066.980469 C 534.089844 1066.46875 530.957031 1065.949219 527.886719 1065.46875 C 520.328125 1053.328125 519.886719 1047.28125 514 1043.441406 C 507.960938 1039.511719 495.664062 1036.359375 490.210938 1026.53125 C 487.011719 1020.761719 476.148438 986.195312 467.707031 958.589844 C 467.449219 948.285156 466.765625 936.726562 465.457031 923.085938 C 462.789062 895.363281 455.488281 856.898438 455.488281 856.898438 C 455.488281 856.898438 453.515625 856.140625 448.328125 856.007812 C 446.097656 855.773438 443.296875 855.5 439.855469 855.210938 L 415.273438 852.554688 C 408.609375 850.992188 403.488281 849.53125 403.488281 849.53125 L 422.082031 790.730469 L 407.363281 845.953125 L 458.207031 852.871094 L 472.261719 795.804688 L 462.425781 854.605469 L 471.8125 864.730469 C 476.714844 890.445312 481.722656 938.195312 484.460938 964.960938 C 486.972656 968.667969 490.074219 972.785156 493.671875 976.746094 C 503.507812 987.566406 520.8125 1000.738281 519.4375 1000.941406 C 519.332031 1000.949219 519.136719 1000.960938 518.871094 1000.960938 C 515.632812 1000.960938 501.535156 999.953125 501.535156 999.953125 C 501.535156 999.953125 509.996094 1024.929688 516.683594 1033.578125 C 523.371094 1042.238281 531.625 1050.5 534.1875 1057.378906 C 535.375 1060.589844 536.527344 1064.179688 537.25 1066.980469 M 473.65625 1063.101562 C 467.417969 1062.601562 463.898438 1061.921875 463.898438 1061.921875 C 463.902344 1051.261719 464.179688 1041.949219 464.582031 1033.441406 L 474.167969 1055.28125 C 474.167969 1055.28125 473.882812 1058.761719 473.65625 1063.101562 "/>
<path fill-rule="evenodd" fill="rgb(84.764099%, 59.959412%, 43.530273%)" fill-opacity="1" d="M 500.816406 727.570312 C 500.816406 727.570312 518.738281 724.644531 522.363281 704.195312 C 525.988281 683.738281 526.53125 665.261719 526.230469 656.601562 L 572.277344 691.609375 C 572.277344 691.609375 574.058594 731.433594 575.550781 735.265625 C 577.03125 739.101562 587.875 747.3125 587.875 747.3125 L 559.441406 781.722656 L 500.816406 727.570312 "/>
<path fill-rule="evenodd" fill="rgb(91.796875%, 67.381287%, 49.021912%)" fill-opacity="1" d="M 415.265625 852.554688 C 415.535156 860.421875 419.242188 930.164062 419.242188 930.164062 L 474.167969 1055.28125 C 474.167969 1055.28125 472.59375 1074.511719 473.917969 1078.839844 C 476.925781 1088.640625 482.84375 1093.28125 487.246094 1096.179688 L 516.652344 1074.910156 C 516.652344 1074.910156 526.875 1087.46875 534.003906 1088.601562 C 541.128906 1089.730469 536.582031 1079.140625 528.464844 1066.390625 C 520.34375 1053.628906 520.035156 1047.371094 514 1043.441406 C 507.960938 1039.511719 495.664062 1036.359375 490.210938 1026.53125 C 484.757812 1016.691406 457.003906 923.097656 457.003906 923.097656 L 455.488281 856.898438 L 415.265625 852.554688 "/>
<path fill-rule="nonzero" fill="rgb(41.575623%, 27.050781%, 12.547302%)" fill-opacity="1" d="M 532.800781 1073.628906 C 532.800781 1073.628906 532.800781 1073.628906 532.796875 1073.621094 C 532.253906 1072.640625 531.671875 1071.628906 531.058594 1070.601562 L 531.058594 1070.589844 C 531.671875 1071.628906 532.257812 1072.640625 532.800781 1073.628906 M 529.378906 1067.839844 C 529.078125 1067.359375 528.773438 1066.871094 528.464844 1066.390625 C 528.773438 1066.878906 529.082031 1067.359375 529.378906 1067.839844 "/>
<path fill-rule="nonzero" fill="rgb(23.535156%, 11.767578%, 3.921509%)" fill-opacity="1" d="M 531.058594 1070.601562 C 530.519531 1069.691406 529.960938 1068.769531 529.378906 1067.839844 C 529.960938 1068.769531 530.523438 1069.691406 531.058594 1070.589844 L 531.058594 1070.601562 "/>
<path fill-rule="nonzero" fill="rgb(82.8125%, 60.742188%, 44.309998%)" fill-opacity="1" d="M 532.796875 1073.621094 C 529.136719 1070.050781 524.457031 1065.109375 522.167969 1061.339844 C 518.035156 1054.558594 515.578125 1048.371094 512.429688 1046.398438 C 509.28125 1044.441406 485.722656 1029.058594 485.722656 1029.058594 C 485.722656 1029.058594 453.234375 931.355469 451.664062 924.667969 C 450.488281 919.675781 449.09375 878.050781 448.460938 856.140625 L 455.488281 856.898438 L 457.003906 923.097656 C 457.003906 923.097656 484.757812 1016.691406 490.210938 1026.53125 C 495.664062 1036.359375 507.960938 1039.511719 514 1043.441406 C 520.035156 1047.371094 520.34375 1053.628906 528.464844 1066.390625 C 528.773438 1066.871094 529.078125 1067.359375 529.378906 1067.839844 C 529.960938 1068.769531 530.519531 1069.691406 531.058594 1070.601562 C 531.671875 1071.628906 532.253906 1072.640625 532.796875 1073.621094 "/>
<path fill-rule="evenodd" fill="rgb(0%, 0%, 0%)" fill-opacity="1" d="M 474.167969 1055.28125 C 474.167969 1055.28125 472.59375 1074.511719 473.917969 1078.839844 C 476.925781 1088.640625 482.84375 1093.28125 487.246094 1096.179688 L 516.652344 1074.910156 C 517.203125 1075.421875 531.789062 1093.03125 537.097656 1087.738281 C 530.578125 1087.988281 521.617188 1077.289062 517.460938 1073.171875 L 508.414062 1059.898438 L 513.234375 1074.738281 C 513.234375 1074.738281 510.28125 1077.101562 509.148438 1078.089844 C 508.015625 1079.078125 490.019531 1093.089844 488.351562 1092.789062 C 486.683594 1092.488281 477.039062 1080.890625 476.644531 1077.941406 C 476.25 1074.988281 474.167969 1055.28125 474.167969 1055.28125 "/>
<path fill-rule="evenodd" fill="rgb(91.796875%, 67.381287%, 49.021912%)" fill-opacity="1" d="M 610.539062 590.71875 C 611.015625 593.851562 619.976562 632.261719 612.011719 662.71875 C 609.394531 672.71875 590.605469 714.050781 581.078125 716.546875 C 575.992188 717.871094 565.59375 719.429688 560.601562 716.632812 C 555.605469 713.835938 517.121094 690.738281 513.644531 685.539062 C 510.164062 680.339844 505.265625 662.511719 505.265625 662.511719 L 504.414062 659.789062 C 504.414062 659.789062 496.894531 658.449219 493.691406 656.378906 C 490.488281 654.320312 483.46875 632.929688 484.519531 627.589844 C 485.574219 622.261719 495.640625 623.128906 495.640625 623.128906 C 495.640625 623.128906 494.257812 582.308594 496.566406 579.890625 C 498.867188 577.460938 565.753906 573.078125 583.109375 573.730469 C 600.464844 574.390625 610.539062 590.71875 610.539062 590.71875 "/>
<path fill-rule="nonzero" fill="rgb(82.8125%, 60.742188%, 44.309998%)" fill-opacity="1" d="M 503.285156 653.890625 C 501.378906 653.890625 496.65625 651.949219 494.875 650.921875 C 492.773438 649.710938 488.746094 629.800781 489.894531 628.578125 C 490.390625 628.058594 492.050781 627.871094 493.933594 627.871094 C 496.410156 627.871094 499.265625 628.199219 500.339844 628.558594 C 500.339844 628.558594 501.425781 628.671875 501.867188 630.53125 C 502.300781 632.378906 502.480469 635.570312 502.296875 636.160156 C 502.113281 636.761719 498.78125 637.539062 498.835938 639.609375 C 498.886719 641.671875 501.683594 643.449219 503.28125 644.28125 C 504.875 645.121094 504.867188 652.78125 504.003906 653.691406 C 503.871094 653.828125 503.625 653.890625 503.285156 653.890625 "/>
<path fill-rule="evenodd" fill="rgb(0%, 0%, 0%)" fill-opacity="1" d="M 548.707031 1563.148438 C 569.136719 1564.710938 648.972656 1570.488281 660.957031 1566.71875 C 669.480469 1564.039062 676.042969 1560.148438 679.804688 1557.578125 C 680.859375 1558.269531 681.742188 1558.988281 682.429688 1559.761719 C 689.796875 1568.019531 683.246094 1571.960938 667.582031 1573.921875 C 651.914062 1575.890625 554.601562 1571.171875 550.644531 1570.378906 C 549.105469 1570.078125 548.664062 1567.039062 548.707031 1563.148438 "/>
<path fill-rule="evenodd" fill="rgb(45.872498%, 29.80957%, 14.109802%)" fill-opacity="1" d="M 471.820312 1049.929688 C 472.902344 1048.488281 496.972656 1033.789062 496.777344 1033.570312 L 490.253906 1026.609375 C 490.1875 1026.539062 467.078125 1039.128906 467.847656 1040.878906 L 471.820312 1049.929688 "/>
<path fill-rule="evenodd" fill="rgb(0%, 0%, 0%)" fill-opacity="1" d="M 475.394531 1050.480469 C 470.683594 1050.480469 466.84375 1046.148438 466.84375 1040.839844 C 466.84375 1035.53125 470.683594 1031.210938 475.394531 1031.210938 C 480.105469 1031.210938 483.953125 1035.53125 483.953125 1040.839844 C 483.953125 1046.148438 480.105469 1050.480469 475.394531 1050.480469 "/>
<path fill-rule="evenodd" fill="rgb(0%, 0%, 0%)" fill-opacity="1" d="M 474.65625 1049.25 C 470.8125 1049.25 467.675781 1045.628906 467.675781 1041.191406 C 467.675781 1036.75 470.8125 1033.121094 474.65625 1033.121094 C 478.507812 1033.121094 481.640625 1036.75 481.640625 1041.191406 C 481.640625 1045.628906 478.507812 1049.25 474.65625 1049.25 "/>
<path fill-rule="evenodd" fill="rgb(90.234375%, 90.234375%, 90.234375%)" fill-opacity="1" d="M 474.65625 1048.320312 C 471.257812 1048.320312 468.480469 1045.109375 468.480469 1041.191406 C 468.480469 1037.261719 471.257812 1034.058594 474.65625 1034.058594 C 478.058594 1034.058594 480.832031 1037.261719 480.832031 1041.191406 C 480.832031 1045.109375 478.058594 1048.320312 474.65625 1048.320312 "/>
<path fill-rule="evenodd" fill="rgb(0%, 44.309998%, 73.631287%)" fill-opacity="1" d="M 576.414062 736.902344 L 604.527344 756.675781 L 582.261719 768.917969 L 587.828125 782.835938 L 559.441406 782.277344 L 576.414062 736.902344 "/>
<path fill-rule="evenodd" fill="rgb(0%, 44.309998%, 73.631287%)" fill-opacity="1" d="M 559.441406 782.277344 L 516.019531 719.378906 L 487.074219 729.953125 L 519.917969 751.105469 L 505.445312 762.796875 L 559.441406 782.277344 "/>
<path fill-rule="evenodd" fill="rgb(0%, 0%, 0%)" fill-opacity="1" d="M 505.164062 631.429688 C 501.664062 624.808594 483.898438 620 485.542969 631.898438 C 481 618.960938 478.773438 602.148438 481.800781 587.601562 C 487.585938 559.761719 512.265625 545.378906 539.410156 543.851562 C 557.84375 542.800781 575.671875 546.929688 590.730469 557.621094 C 601.390625 565.179688 614.925781 574.289062 627.847656 566.78125 C 624.148438 574.96875 614.292969 578.859375 605.824219 579.738281 C 609.183594 584.070312 612.828125 587.238281 614.527344 592.589844 C 616.644531 599.269531 614.933594 605.03125 614.570312 611.679688 C 612.359375 605.949219 609.800781 600.199219 605.871094 595.210938 C 601.605469 589.789062 591.960938 581.328125 584.949219 580.148438 C 589.226562 586.199219 591.445312 596.371094 587.921875 603.328125 C 586.757812 597.558594 584.433594 592.878906 579.898438 588.839844 C 575.980469 585.351562 567.84375 579.238281 562.425781 579.308594 C 561.457031 583.03125 562.945312 587.828125 561.089844 591.621094 C 561.199219 583.851562 555.789062 578.089844 548.585938 582.050781 C 540.074219 586.730469 539.511719 594.671875 535.960938 602.589844 C 533.667969 597.839844 533.476562 589.070312 533.15625 583.558594 C 529.347656 587.949219 519.363281 607.210938 518.421875 619.25 C 515.472656 616.269531 515.289062 608.578125 513.515625 604.441406 C 510.527344 608.589844 509.445312 614.449219 508.507812 619.320312 C 507.734375 623.289062 506.117188 627.359375 506.003906 631.429688 "/>
<path fill-rule="nonzero" fill="rgb(91.796875%, 67.381287%, 49.021912%)" fill-opacity="1" d="M 720.824219 987.175781 C 720.824219 987.175781 757.988281 972.035156 755.441406 978.472656 C 752.558594 985.753906 742.355469 988.460938 742.355469 988.460938 C 742.355469 988.460938 787.484375 975.703125 787.679688 981.636719 C 787.777344 984.488281 767.902344 988.757812 767.902344 988.757812 C 767.902344 988.757812 796.292969 982.589844 796.386719 986.78125 C 796.503906 992.121094 763.550781 998.648438 763.550781 998.648438 C 763.550781 998.648438 796.386719 990.144531 796.386719 995.484375 C 796.386719 998.648438 762.363281 1006.960938 762.363281 1006.960938 C 762.363281 1006.960938 790.449219 999.835938 790.449219 1003 C 790.449219 1006.171875 759.199219 1021.988281 720.824219 1012.488281 L 714.496094 1006.960938 L 720.824219 987.175781 "/>
<path fill-rule="nonzero" fill="rgb(10.205078%, 10.205078%, 10.205078%)" fill-opacity="1" d="M 610.230469 626.570312 C 611.871094 625.601562 612.882812 624.339844 613.382812 623.628906 C 599.285156 624.019531 593.371094 620.941406 590.664062 617.78125 C 589.84375 616.828125 587.742188 614.03125 585.660156 614.429688 C 584.1875 614.710938 582.914062 616.570312 583.054688 618.148438 C 583.164062 619.398438 584.191406 620.789062 590.480469 623.398438 C 599.148438 626.988281 605.25 629.519531 610.230469 626.570312 "/>
<path fill-rule="nonzero" fill="rgb(10.205078%, 10.205078%, 10.205078%)" fill-opacity="1" d="M 531.226562 630.441406 C 529.4375 629.378906 528.335938 628.011719 527.785156 627.230469 C 543.179688 627.660156 549.632812 624.289062 552.589844 620.851562 C 553.484375 619.800781 555.777344 616.75 558.050781 617.191406 C 559.65625 617.5 561.046875 619.519531 560.898438 621.238281 C 560.777344 622.609375 559.652344 624.128906 552.785156 626.980469 C 543.328125 630.898438 536.664062 633.660156 531.226562 630.441406 "/>
<path fill-rule="nonzero" fill="rgb(84.764099%, 59.568787%, 42.358398%)" fill-opacity="1" d="M 572.867188 623.511719 C 572.867188 623.511719 569 634.589844 572.867188 643.289062 C 577.878906 654.578125 583.253906 656.730469 584.472656 658.460938 C 585.703125 660.210938 569.199219 668.351562 569.199219 668.351562 C 569.199219 668.351562 581.984375 660.308594 581.96875 658.328125 C 581.949219 656.351562 560.925781 651.539062 572.867188 623.511719 "/>
<path fill-rule="nonzero" fill="rgb(100%, 100%, 100%)" fill-opacity="1" d="M 538.054688 640.878906 C 538.054688 640.878906 551.214844 644.058594 554.128906 642.210938 C 557.042969 640.359375 559.441406 631.851562 559.441406 631.851562 C 559.441406 631.851562 541.21875 634.269531 538.054688 640.878906 "/>
<path fill-rule="nonzero" fill="rgb(37.646484%, 21.972656%, 7.446289%)" fill-opacity="1" d="M 555.835938 638.199219 C 555.835938 640.730469 553.964844 642.78125 551.652344 642.78125 C 549.34375 642.78125 547.46875 640.730469 547.46875 638.199219 C 547.46875 635.671875 549.34375 633.621094 551.652344 633.621094 C 553.964844 633.621094 555.835938 635.671875 555.835938 638.199219 "/>
<path fill-rule="nonzero" fill="rgb(45.872498%, 29.80957%, 14.109802%)" fill-opacity="1" d="M 554.367188 638.421875 C 554.367188 639.691406 553.636719 640.710938 552.738281 640.710938 C 551.839844 640.710938 551.109375 639.691406 551.109375 638.421875 C 551.109375 637.160156 551.839844 636.128906 552.738281 636.128906 C 553.636719 636.128906 554.367188 637.160156 554.367188 638.421875 "/>
<path fill-rule="nonzero" fill="rgb(100%, 100%, 100%)" fill-opacity="1" d="M 549.328125 637.929688 C 549.328125 638.929688 548.488281 639.738281 547.449219 639.738281 C 546.410156 639.738281 545.566406 638.929688 545.566406 637.929688 C 545.566406 636.941406 546.410156 636.128906 547.449219 636.128906 C 548.488281 636.128906 549.328125 636.941406 549.328125 637.929688 "/>
<path fill-rule="evenodd" fill="rgb(45.872498%, 29.80957%, 14.109802%)" fill-opacity="1" d="M 559.441406 631.851562 C 559.441406 631.851562 542.800781 624.25 538.054688 640.878906 C 538.054688 640.878906 552.738281 631.851562 559.441406 631.851562 "/>
<path fill-rule="nonzero" fill="rgb(100%, 100%, 100%)" fill-opacity="1" d="M 605.074219 636.269531 C 605.074219 636.269531 594.773438 641.328125 591.710938 640.429688 C 588.644531 639.53125 583.644531 633.609375 583.644531 633.609375 C 583.644531 633.609375 600.671875 631.289062 605.074219 636.269531 "/>
<path fill-rule="nonzero" fill="rgb(37.646484%, 21.972656%, 7.446289%)" fill-opacity="1" d="M 589.890625 637.601562 C 590.484375 639.800781 592.652344 641.128906 594.742188 640.570312 C 596.828125 640.011719 598.039062 637.769531 597.449219 635.570312 C 596.859375 633.371094 594.6875 632.039062 592.601562 632.601562 C 590.511719 633.160156 589.300781 635.398438 589.890625 637.601562 "/>
<path fill-rule="nonzero" fill="rgb(45.872498%, 29.80957%, 14.109802%)" fill-opacity="1" d="M 592.222656 636.519531 C 592.140625 637.570312 592.921875 638.488281 593.96875 638.570312 C 595.015625 638.660156 595.933594 637.871094 596.019531 636.828125 C 596.101562 635.78125 595.320312 634.859375 594.273438 634.78125 C 593.226562 634.691406 592.308594 635.46875 592.222656 636.519531 "/>
<path fill-rule="nonzero" fill="rgb(100%, 100%, 100%)" fill-opacity="1" d="M 594.199219 636.441406 C 594.433594 637.308594 595.382812 637.808594 596.320312 637.558594 C 597.257812 637.300781 597.832031 636.398438 597.597656 635.53125 C 597.367188 634.660156 596.417969 634.171875 595.476562 634.421875 C 594.539062 634.671875 593.96875 635.578125 594.199219 636.441406 "/>
<path fill-rule="evenodd" fill="rgb(45.872498%, 29.80957%, 14.109802%)" fill-opacity="1" d="M 583.644531 633.609375 C 583.644531 633.609375 596.902344 622.960938 605.074219 636.269531 C 605.074219 636.269531 589.699219 631.980469 583.644531 633.609375 "/>
<path fill-rule="nonzero" fill="rgb(100%, 100%, 100%)" fill-opacity="1" d="M 555.835938 685.460938 C 555.835938 685.460938 580.097656 668.320312 583.265625 677.550781 C 586.429688 686.78125 571.660156 688.363281 555.835938 685.460938 "/>
<path fill-rule="nonzero" fill="rgb(61.914062%, 0%, 36.473083%)" fill-opacity="1" d="M 833.875 795.125 L 918.460938 772.382812 L 917.421875 768.519531 L 832.835938 791.261719 "/>
<path fill-rule="nonzero" fill="rgb(61.914062%, 0%, 36.473083%)" fill-opacity="1" d="M 877.054688 678.769531 L 925.117188 749.386719 L 928.421875 747.136719 L 880.363281 676.519531 "/>
<path fill-rule="nonzero" fill="rgb(61.914062%, 0%, 36.473083%)" fill-opacity="1" d="M 805.523438 697.945312 L 922.542969 763.199219 L 924.492188 759.703125 L 807.472656 694.453125 "/>
<path fill-rule="nonzero" fill="rgb(61.914062%, 0%, 36.473083%)" fill-opacity="1" d="M 1513.988281 833.632812 L 1519.511719 889.757812 L 1523.488281 889.367188 L 1517.96875 833.242188 "/>
<path fill-rule="nonzero" fill="rgb(61.914062%, 0%, 36.473083%)" fill-opacity="1" d="M 1583.738281 872.621094 L 1533.820312 895.695312 L 1535.5 899.324219 L 1585.421875 876.253906 "/>
<path fill-rule="nonzero" fill="rgb(61.914062%, 0%, 36.473083%)" fill-opacity="1" d="M 1578.851562 825.367188 L 1525.058594 892.808594 L 1528.191406 895.300781 L 1581.980469 827.859375 "/>
</svg>
